<?xml version="1.0" encoding="utf-8"?>
<!-- Generator: Adobe Illustrator 19.0.0, SVG Export Plug-In . SVG Version: 6.00 Build 0)  -->
<svg version="1.1" id="Layer_1" xmlns="http://www.w3.org/2000/svg" xmlns:xlink="http://www.w3.org/1999/xlink" x="0px" y="0px"
	 viewBox="0 0 770.1 372.9" enable-background="new 0 0 770.1 372.9" xml:space="preserve">
<g id="XMLID_195_">
	<path id="XMLID_196_" fill="#1A1A1A" d="M93.4,350.4h1.2l3.9,5v-5h1.3v7.3h-1.1l-4-5.2v5.2h-1.3V350.4z"/>
	<path id="XMLID_198_" fill="#1A1A1A" d="M101.1,354.9L101.1,354.9c0-1.6,1.2-2.9,2.9-2.9c1.7,0,2.9,1.3,2.9,2.8v0
		c0,1.6-1.2,2.9-2.9,2.9C102.4,357.7,101.1,356.5,101.1,354.9z M105.7,354.9L105.7,354.9c0-1-0.7-1.8-1.7-1.8c-1,0-1.6,0.8-1.6,1.7
		v0c0,1,0.7,1.8,1.7,1.8C105.1,356.7,105.7,355.9,105.7,354.9z"/>
	<path id="XMLID_201_" fill="#1A1A1A" d="M108.2,352.1h1.3v0.9c0.4-0.5,0.9-1,1.7-1c1.2,0,2,0.8,2,2.1v3.5h-1.3v-3.1
		c0-0.9-0.4-1.3-1.2-1.3c-0.7,0-1.2,0.5-1.2,1.4v3.1h-1.3V352.1z"/>
	<path id="XMLID_203_" fill="#1A1A1A" d="M114.5,353.8h3.1v1.2h-3.1V353.8z"/>
	<path id="XMLID_205_" fill="#1A1A1A" d="M118.9,352.1h1.3v1.2c0.3-0.8,1-1.4,1.9-1.3v1.3H122c-1.1,0-1.9,0.7-1.9,2.2v2.1h-1.3
		V352.1z"/>
	<path id="XMLID_207_" fill="#1A1A1A" d="M122.7,354.9L122.7,354.9c0-1.6,1.1-2.9,2.7-2.9c1.7,0,2.6,1.4,2.6,2.9c0,0.1,0,0.2,0,0.4
		h-4c0.1,0.9,0.8,1.4,1.6,1.4c0.6,0,1-0.2,1.5-0.7l0.7,0.7c-0.5,0.6-1.2,1-2.2,1C123.9,357.7,122.7,356.6,122.7,354.9z M126.8,354.5
		c-0.1-0.8-0.6-1.4-1.4-1.4c-0.8,0-1.3,0.6-1.4,1.4H126.8z"/>
	<path id="XMLID_210_" fill="#1A1A1A" d="M128.8,356.9l0.6-0.9c0.6,0.4,1.2,0.7,1.8,0.7c0.5,0,0.9-0.2,0.9-0.6v0
		c0-0.4-0.6-0.6-1.2-0.8c-0.8-0.2-1.7-0.6-1.7-1.6v0c0-1,0.9-1.7,2-1.7c0.7,0,1.4,0.2,2,0.6l-0.5,0.9c-0.5-0.3-1.1-0.5-1.5-0.5
		c-0.5,0-0.8,0.2-0.8,0.5v0c0,0.4,0.6,0.6,1.2,0.8c0.8,0.2,1.7,0.6,1.7,1.6v0c0,1.2-0.9,1.7-2,1.7
		C130.4,357.7,129.5,357.4,128.8,356.9z"/>
	<path id="XMLID_212_" fill="#1A1A1A" d="M134.5,352.1h1.3v0.9c0.4-0.6,1-1,1.9-1c1.3,0,2.6,1,2.6,2.8v0c0,1.8-1.2,2.8-2.6,2.8
		c-0.9,0-1.5-0.5-1.9-1v2.5h-1.3V352.1z M138.9,354.9L138.9,354.9c0-1.1-0.7-1.8-1.6-1.8s-1.6,0.7-1.6,1.8v0c0,1.1,0.7,1.8,1.6,1.8
		C138.2,356.6,138.9,356,138.9,354.9z"/>
	<path id="XMLID_215_" fill="#1A1A1A" d="M141.1,354.9L141.1,354.9c0-1.6,1.2-2.9,2.9-2.9c1.7,0,2.9,1.3,2.9,2.8v0
		c0,1.6-1.2,2.9-2.9,2.9C142.4,357.7,141.1,356.5,141.1,354.9z M145.7,354.9L145.7,354.9c0-1-0.7-1.8-1.7-1.8c-1,0-1.6,0.8-1.6,1.7
		v0c0,1,0.7,1.8,1.7,1.8C145.1,356.7,145.7,355.9,145.7,354.9z"/>
	<path id="XMLID_218_" fill="#1A1A1A" d="M148.2,352.1h1.3v0.9c0.4-0.5,0.9-1,1.7-1c1.2,0,2,0.8,2,2.1v3.5h-1.3v-3.1
		c0-0.9-0.4-1.3-1.2-1.3c-0.7,0-1.2,0.5-1.2,1.4v3.1h-1.3V352.1z"/>
	<path id="XMLID_220_" fill="#1A1A1A" d="M154.4,354.9L154.4,354.9c0-1.8,1.2-2.9,2.5-2.9c0.9,0,1.5,0.5,1.9,1v-2.9h1.3v7.6h-1.3
		v-0.9c-0.4,0.6-1,1-1.9,1C155.7,357.7,154.4,356.7,154.4,354.9z M158.8,354.9L158.8,354.9c0-1.1-0.7-1.8-1.6-1.8
		c-0.9,0-1.6,0.7-1.6,1.8v0c0,1.1,0.7,1.8,1.6,1.8C158.1,356.6,158.8,355.9,158.8,354.9z"/>
	<path id="XMLID_223_" fill="#1A1A1A" d="M161.3,354.9L161.3,354.9c0-1.6,1.1-2.9,2.7-2.9c1.7,0,2.6,1.4,2.6,2.9c0,0.1,0,0.2,0,0.4
		h-4c0.1,0.9,0.8,1.4,1.6,1.4c0.6,0,1-0.2,1.5-0.7l0.7,0.7c-0.5,0.6-1.2,1-2.2,1C162.6,357.7,161.3,356.6,161.3,354.9z M165.4,354.5
		c-0.1-0.8-0.6-1.4-1.4-1.4c-0.8,0-1.3,0.6-1.4,1.4H165.4z"/>
	<path id="XMLID_226_" fill="#1A1A1A" d="M167.9,352.1h1.3v1.2c0.3-0.8,1-1.4,1.9-1.3v1.3H171c-1.1,0-1.9,0.7-1.9,2.2v2.1h-1.3
		V352.1z"/>
</g>
<g id="XMLID_149_">
	<path id="XMLID_150_" fill="#1A1A1A" d="M189.1,356.6l0.8-0.9c0.7,0.6,1.4,0.9,2.3,0.9c0.8,0,1.3-0.4,1.3-0.9v0
		c0-0.5-0.3-0.8-1.6-1.1c-1.5-0.4-2.4-0.8-2.4-2.2v0c0-1.2,1-2.1,2.5-2.1c1.1,0,1.9,0.3,2.6,0.9l-0.7,1c-0.7-0.5-1.3-0.7-2-0.7
		c-0.7,0-1.2,0.4-1.2,0.9v0c0,0.6,0.3,0.8,1.7,1.1c1.5,0.4,2.3,0.9,2.3,2.1v0c0,1.4-1.1,2.2-2.6,2.2
		C191,357.7,190,357.3,189.1,356.6z"/>
	<path id="XMLID_152_" fill="#1A1A1A" d="M196,355.6v-3.5h1.3v3.1c0,0.9,0.4,1.3,1.2,1.3c0.7,0,1.2-0.5,1.2-1.4v-3.1h1.3v5.5h-1.3
		v-0.9c-0.4,0.5-0.9,1-1.7,1C196.7,357.7,196,356.9,196,355.6z"/>
	<path id="XMLID_154_" fill="#1A1A1A" d="M203.8,356.8v0.9h-1.3v-7.6h1.3v3c0.4-0.6,1-1,1.9-1c1.3,0,2.6,1,2.6,2.8v0
		c0,1.8-1.2,2.8-2.6,2.8C204.7,357.7,204.2,357.3,203.8,356.8z M206.9,354.9L206.9,354.9c0-1.1-0.7-1.8-1.6-1.8s-1.6,0.7-1.6,1.8v0
		c0,1.1,0.7,1.8,1.6,1.8C206.2,356.6,206.9,356,206.9,354.9z"/>
	<path id="XMLID_157_" fill="#1A1A1A" d="M209.2,354.9L209.2,354.9c0-1.6,1.2-2.9,2.9-2.9c1.7,0,2.9,1.3,2.9,2.8v0
		c0,1.6-1.2,2.9-2.9,2.9C210.4,357.7,209.2,356.5,209.2,354.9z M213.8,354.9L213.8,354.9c0-1-0.7-1.8-1.7-1.8c-1,0-1.6,0.8-1.6,1.7
		v0c0,1,0.7,1.8,1.7,1.8C213.1,356.7,213.8,355.9,213.8,354.9z"/>
	<path id="XMLID_160_" fill="#1A1A1A" d="M216.3,352.1h1.3v0.9c0.4-0.6,1-1,1.9-1c1.3,0,2.6,1,2.6,2.8v0c0,1.8-1.2,2.8-2.6,2.8
		c-0.9,0-1.5-0.5-1.9-1v2.5h-1.3V352.1z M220.7,354.9L220.7,354.9c0-1.1-0.7-1.8-1.6-1.8s-1.6,0.7-1.6,1.8v0c0,1.1,0.7,1.8,1.6,1.8
		C220,356.6,220.7,356,220.7,354.9z"/>
	<path id="XMLID_163_" fill="#1A1A1A" d="M223.5,356.1v-2.9h-0.7v-1.1h0.7v-1.5h1.3v1.5h1.5v1.1h-1.5v2.7c0,0.5,0.2,0.7,0.7,0.7
		c0.3,0,0.5-0.1,0.8-0.2v1c-0.3,0.2-0.7,0.3-1.1,0.3C224.2,357.7,223.5,357.3,223.5,356.1z"/>
	<path id="XMLID_165_" fill="#1A1A1A" d="M227.5,350.1h1.3v1.2h-1.3V350.1z M227.6,352.1h1.3v5.5h-1.3V352.1z"/>
	<path id="XMLID_168_" fill="#1A1A1A" d="M230.5,352.1h1.3v0.8c0.4-0.5,0.8-0.9,1.7-0.9c0.8,0,1.3,0.4,1.6,1c0.4-0.6,1-1,1.9-1
		c1.2,0,1.9,0.8,1.9,2.1v3.5h-1.3v-3.1c0-0.9-0.4-1.3-1.1-1.3c-0.7,0-1.2,0.5-1.2,1.4v3.1H234v-3.1c0-0.9-0.4-1.3-1.1-1.3
		c-0.7,0-1.2,0.5-1.2,1.4v3.1h-1.3V352.1z"/>
	<path id="XMLID_170_" fill="#1A1A1A" d="M243.7,357.6v-0.7c-0.4,0.4-0.9,0.8-1.8,0.8c-1,0-2-0.6-2-1.7v0c0-1.2,0.9-1.8,2.2-1.8
		c0.7,0,1.1,0.1,1.5,0.2v-0.1c0-0.8-0.5-1.2-1.3-1.2c-0.6,0-1.1,0.1-1.6,0.3l-0.3-1c0.6-0.3,1.2-0.5,2.1-0.5c1.6,0,2.4,0.9,2.4,2.3
		v3.2H243.7z M243.7,355.3c-0.3-0.1-0.8-0.2-1.3-0.2c-0.8,0-1.3,0.3-1.3,0.9v0c0,0.5,0.5,0.8,1.1,0.8c0.8,0,1.5-0.5,1.5-1.2V355.3z"
		/>
	<path id="XMLID_173_" fill="#1A1A1A" d="M246.5,350.1h1.3v7.6h-1.3V350.1z"/>
	<path id="XMLID_175_" fill="#1A1A1A" d="M195.8,364.6h1.3v1.2c0.3-0.8,1-1.4,1.9-1.3v1.3h-0.1c-1.1,0-1.9,0.7-1.9,2.2v2.1h-1.3
		V364.6z"/>
	<path id="XMLID_177_" fill="#1A1A1A" d="M199.6,367.4L199.6,367.4c0-1.6,1.1-2.9,2.7-2.9c1.7,0,2.6,1.4,2.6,2.9c0,0.1,0,0.2,0,0.4
		h-4c0.1,0.9,0.8,1.4,1.6,1.4c0.6,0,1-0.2,1.5-0.7l0.7,0.7c-0.5,0.6-1.2,1-2.2,1C200.8,370.2,199.6,369.1,199.6,367.4z M203.7,367
		c-0.1-0.8-0.6-1.4-1.4-1.4c-0.8,0-1.3,0.6-1.4,1.4H203.7z"/>
	<path id="XMLID_180_" fill="#1A1A1A" d="M205.7,369.4l0.6-0.9c0.6,0.4,1.2,0.7,1.8,0.7c0.5,0,0.9-0.2,0.9-0.6v0
		c0-0.4-0.6-0.6-1.2-0.8c-0.8-0.2-1.7-0.6-1.7-1.6v0c0-1,0.9-1.7,2-1.7c0.7,0,1.4,0.2,2,0.6l-0.5,0.9c-0.5-0.3-1.1-0.5-1.5-0.5
		c-0.5,0-0.8,0.2-0.8,0.5v0c0,0.4,0.6,0.6,1.2,0.8c0.8,0.2,1.7,0.6,1.7,1.6v0c0,1.2-0.9,1.7-2,1.7
		C207.3,370.2,206.4,369.9,205.7,369.4z"/>
	<path id="XMLID_182_" fill="#1A1A1A" d="M211.4,364.6h1.3v0.9c0.4-0.6,1-1,1.9-1c1.3,0,2.6,1,2.6,2.8v0c0,1.8-1.2,2.8-2.6,2.8
		c-0.9,0-1.5-0.5-1.9-1v2.5h-1.3V364.6z M215.8,367.4L215.8,367.4c0-1.1-0.7-1.8-1.6-1.8s-1.6,0.7-1.6,1.8v0c0,1.1,0.7,1.8,1.6,1.8
		C215,369.1,215.8,368.4,215.8,367.4z"/>
	<path id="XMLID_185_" fill="#1A1A1A" d="M218,367.4L218,367.4c0-1.6,1.2-2.9,2.9-2.9c1.7,0,2.9,1.3,2.9,2.8v0
		c0,1.6-1.2,2.9-2.9,2.9C219.2,370.2,218,368.9,218,367.4z M222.6,367.4L222.6,367.4c0-1-0.7-1.8-1.7-1.8c-1,0-1.6,0.8-1.6,1.7v0
		c0,1,0.7,1.8,1.7,1.8C222,369.1,222.6,368.3,222.6,367.4z"/>
	<path id="XMLID_188_" fill="#1A1A1A" d="M225.1,364.6h1.3v0.9c0.4-0.5,0.9-1,1.7-1c1.2,0,2,0.8,2,2.1v3.5h-1.3V367
		c0-0.9-0.4-1.3-1.2-1.3c-0.7,0-1.2,0.5-1.2,1.4v3.1h-1.3V364.6z"/>
	<path id="XMLID_190_" fill="#1A1A1A" d="M231.1,369.4l0.6-0.9c0.6,0.4,1.2,0.7,1.8,0.7c0.5,0,0.9-0.2,0.9-0.6v0
		c0-0.4-0.6-0.6-1.2-0.8c-0.8-0.2-1.7-0.6-1.7-1.6v0c0-1,0.9-1.7,2-1.7c0.7,0,1.4,0.2,2,0.6l-0.5,0.9c-0.5-0.3-1.1-0.5-1.5-0.5
		c-0.5,0-0.8,0.2-0.8,0.5v0c0,0.4,0.6,0.6,1.2,0.8c0.8,0.2,1.7,0.6,1.7,1.6v0c0,1.2-0.9,1.7-2,1.7
		C232.7,370.2,231.8,369.9,231.1,369.4z"/>
	<path id="XMLID_192_" fill="#1A1A1A" d="M236.5,367.4L236.5,367.4c0-1.6,1.1-2.9,2.7-2.9c1.7,0,2.6,1.4,2.6,2.9c0,0.1,0,0.2,0,0.4
		h-4c0.1,0.9,0.8,1.4,1.6,1.4c0.6,0,1-0.2,1.5-0.7l0.7,0.7c-0.5,0.6-1.2,1-2.2,1C237.7,370.2,236.5,369.1,236.5,367.4z M240.5,367
		c-0.1-0.8-0.6-1.4-1.4-1.4c-0.8,0-1.3,0.6-1.4,1.4H240.5z"/>
</g>
<g id="XMLID_84_">
	<path id="XMLID_85_" fill="#1A1A1A" d="M311.8,354L311.8,354c0-2.1,1.5-3.8,3.7-3.8c1.3,0,2.1,0.5,2.8,1.1l-0.8,0.9
		c-0.6-0.5-1.2-0.9-2-0.9c-1.4,0-2.4,1.1-2.4,2.6v0c0,1.4,1,2.6,2.4,2.6c0.9,0,1.5-0.4,2.1-0.9l0.8,0.8c-0.8,0.8-1.6,1.3-2.9,1.3
		C313.4,357.7,311.8,356.1,311.8,354z"/>
	<path id="XMLID_87_" fill="#1A1A1A" d="M319.7,350.1h1.3v7.6h-1.3V350.1z"/>
	<path id="XMLID_89_" fill="#1A1A1A" d="M322.6,350.1h1.3v1.2h-1.3V350.1z M322.7,352.1h1.3v5.5h-1.3V352.1z"/>
	<path id="XMLID_92_" fill="#1A1A1A" d="M325.6,352.1h1.3v0.9c0.4-0.5,0.9-1,1.7-1c1.2,0,2,0.8,2,2.1v3.5h-1.3v-3.1
		c0-0.9-0.4-1.3-1.2-1.3c-0.7,0-1.2,0.5-1.2,1.4v3.1h-1.3V352.1z"/>
	<path id="XMLID_94_" fill="#1A1A1A" d="M332,350.1h1.3v1.2H332V350.1z M332.1,352.1h1.3v5.5h-1.3V352.1z"/>
	<path id="XMLID_97_" fill="#1A1A1A" d="M334.7,354.9L334.7,354.9c0-1.6,1.2-2.9,2.8-2.9c1,0,1.7,0.4,2.2,0.9l-0.8,0.8
		c-0.4-0.4-0.8-0.7-1.4-0.7c-0.9,0-1.6,0.8-1.6,1.7v0c0,1,0.7,1.8,1.6,1.8c0.6,0,1-0.3,1.4-0.7l0.8,0.7c-0.5,0.6-1.2,1-2.2,1
		C335.9,357.7,334.7,356.5,334.7,354.9z"/>
	<path id="XMLID_99_" fill="#1A1A1A" d="M344.3,357.6v-0.7c-0.4,0.4-0.9,0.8-1.8,0.8c-1,0-2-0.6-2-1.7v0c0-1.2,0.9-1.8,2.2-1.8
		c0.7,0,1.1,0.1,1.5,0.2v-0.1c0-0.8-0.5-1.2-1.3-1.2c-0.6,0-1.1,0.1-1.6,0.3l-0.3-1c0.6-0.3,1.2-0.5,2.1-0.5c1.6,0,2.4,0.9,2.4,2.3
		v3.2H344.3z M344.3,355.3c-0.3-0.1-0.8-0.2-1.3-0.2c-0.8,0-1.3,0.3-1.3,0.9v0c0,0.5,0.5,0.8,1.1,0.8c0.8,0,1.5-0.5,1.5-1.2V355.3z"
		/>
	<path id="XMLID_102_" fill="#1A1A1A" d="M347.1,350.1h1.3v7.6h-1.3V350.1z"/>
	<path id="XMLID_104_" fill="#1A1A1A" d="M350.1,350.1h1.3v7.6h-1.3V350.1z"/>
	<path id="XMLID_106_" fill="#1A1A1A" d="M352.8,359l0.4-0.9c0.2,0.1,0.5,0.2,0.7,0.2c0.4,0,0.6-0.2,0.8-0.6l-2.3-5.5h1.3l1.6,4.1
		l1.4-4.1h1.3l-2.2,5.6c-0.4,1.1-0.9,1.5-1.8,1.5C353.5,359.3,353.2,359.2,352.8,359z"/>
	<path id="XMLID_108_" fill="#1A1A1A" d="M362,354.9L362,354.9c0-1.6,1.1-2.9,2.7-2.9c1.7,0,2.6,1.4,2.6,2.9c0,0.1,0,0.2,0,0.4h-4
		c0.1,0.9,0.8,1.4,1.6,1.4c0.6,0,1-0.2,1.5-0.7l0.7,0.7c-0.5,0.6-1.2,1-2.2,1C363.2,357.7,362,356.6,362,354.9z M366,354.5
		c-0.1-0.8-0.6-1.4-1.4-1.4c-0.8,0-1.3,0.6-1.4,1.4H366z"/>
	<path id="XMLID_111_" fill="#1A1A1A" d="M369.7,354.8l-1.9-2.7h1.4l1.3,1.8l1.3-1.8h1.3l-1.9,2.7l2,2.8h-1.4l-1.3-1.9l-1.3,1.9
		h-1.3L369.7,354.8z"/>
	<path id="XMLID_113_" fill="#1A1A1A" d="M374.2,352.1h1.3v0.9c0.4-0.6,1-1,1.9-1c1.3,0,2.6,1,2.6,2.8v0c0,1.8-1.2,2.8-2.6,2.8
		c-0.9,0-1.5-0.5-1.9-1v2.5h-1.3V352.1z M378.6,354.9L378.6,354.9c0-1.1-0.7-1.8-1.6-1.8s-1.6,0.7-1.6,1.8v0c0,1.1,0.7,1.8,1.6,1.8
		C377.9,356.6,378.6,356,378.6,354.9z"/>
	<path id="XMLID_116_" fill="#1A1A1A" d="M380.9,354.9L380.9,354.9c0-1.6,1.1-2.9,2.7-2.9c1.7,0,2.6,1.4,2.6,2.9c0,0.1,0,0.2,0,0.4
		h-4c0.1,0.9,0.8,1.4,1.6,1.4c0.6,0,1-0.2,1.5-0.7l0.7,0.7c-0.5,0.6-1.2,1-2.2,1C382.1,357.7,380.9,356.6,380.9,354.9z M384.9,354.5
		c-0.1-0.8-0.6-1.4-1.4-1.4c-0.8,0-1.3,0.6-1.4,1.4H384.9z"/>
	<path id="XMLID_119_" fill="#1A1A1A" d="M387.2,354.9L387.2,354.9c0-1.6,1.2-2.9,2.8-2.9c1,0,1.7,0.4,2.2,0.9l-0.8,0.8
		c-0.4-0.4-0.8-0.7-1.4-0.7c-0.9,0-1.6,0.8-1.6,1.7v0c0,1,0.7,1.8,1.6,1.8c0.6,0,1-0.3,1.4-0.7l0.8,0.7c-0.5,0.6-1.2,1-2.2,1
		C388.4,357.7,387.2,356.5,387.2,354.9z"/>
	<path id="XMLID_121_" fill="#1A1A1A" d="M393.6,356.1v-2.9h-0.7v-1.1h0.7v-1.5h1.3v1.5h1.5v1.1h-1.5v2.7c0,0.5,0.2,0.7,0.7,0.7
		c0.3,0,0.5-0.1,0.8-0.2v1c-0.3,0.2-0.7,0.3-1.1,0.3C394.3,357.7,393.6,357.3,393.6,356.1z"/>
	<path id="XMLID_123_" fill="#1A1A1A" d="M397.2,354.9L397.2,354.9c0-1.6,1.1-2.9,2.7-2.9c1.7,0,2.6,1.4,2.6,2.9c0,0.1,0,0.2,0,0.4
		h-4c0.1,0.9,0.8,1.4,1.6,1.4c0.6,0,1-0.2,1.5-0.7l0.7,0.7c-0.5,0.6-1.2,1-2.2,1C398.4,357.7,397.2,356.6,397.2,354.9z M401.2,354.5
		c-0.1-0.8-0.6-1.4-1.4-1.4c-0.8,0-1.3,0.6-1.4,1.4H401.2z"/>
	<path id="XMLID_126_" fill="#1A1A1A" d="M403.5,354.9L403.5,354.9c0-1.8,1.2-2.9,2.5-2.9c0.9,0,1.5,0.5,1.9,1v-2.9h1.3v7.6h-1.3
		v-0.9c-0.4,0.6-1,1-1.9,1C404.7,357.7,403.5,356.7,403.5,354.9z M407.9,354.9L407.9,354.9c0-1.1-0.7-1.8-1.6-1.8
		c-0.9,0-1.6,0.7-1.6,1.8v0c0,1.1,0.7,1.8,1.6,1.8C407.1,356.6,407.9,355.9,407.9,354.9z"/>
	<path id="XMLID_129_" fill="#1A1A1A" d="M413.8,352.1h1.3v1.2c0.3-0.8,1-1.4,1.9-1.3v1.3h-0.1c-1.1,0-1.9,0.7-1.9,2.2v2.1h-1.3
		V352.1z"/>
	<path id="XMLID_131_" fill="#1A1A1A" d="M417.6,354.9L417.6,354.9c0-1.6,1.1-2.9,2.7-2.9c1.7,0,2.6,1.4,2.6,2.9c0,0.1,0,0.2,0,0.4
		h-4c0.1,0.9,0.8,1.4,1.6,1.4c0.6,0,1-0.2,1.5-0.7l0.7,0.7c-0.5,0.6-1.2,1-2.2,1C418.8,357.7,417.6,356.6,417.6,354.9z M421.7,354.5
		c-0.1-0.8-0.6-1.4-1.4-1.4c-0.8,0-1.3,0.6-1.4,1.4H421.7z"/>
	<path id="XMLID_134_" fill="#1A1A1A" d="M423.7,356.9l0.6-0.9c0.6,0.4,1.2,0.7,1.8,0.7c0.5,0,0.9-0.2,0.9-0.6v0
		c0-0.4-0.6-0.6-1.2-0.8c-0.8-0.2-1.7-0.6-1.7-1.6v0c0-1,0.9-1.7,2-1.7c0.7,0,1.4,0.2,2,0.6l-0.5,0.9c-0.5-0.3-1.1-0.5-1.5-0.5
		c-0.5,0-0.8,0.2-0.8,0.5v0c0,0.4,0.6,0.6,1.2,0.8c0.8,0.2,1.7,0.6,1.7,1.6v0c0,1.2-0.9,1.7-2,1.7
		C425.3,357.7,424.4,357.4,423.7,356.9z"/>
	<path id="XMLID_136_" fill="#1A1A1A" d="M429.4,352.1h1.3v0.9c0.4-0.6,1-1,1.9-1c1.3,0,2.6,1,2.6,2.8v0c0,1.8-1.2,2.8-2.6,2.8
		c-0.9,0-1.5-0.5-1.9-1v2.5h-1.3V352.1z M433.8,354.9L433.8,354.9c0-1.1-0.7-1.8-1.6-1.8s-1.6,0.7-1.6,1.8v0c0,1.1,0.7,1.8,1.6,1.8
		C433.1,356.6,433.8,356,433.8,354.9z"/>
	<path id="XMLID_139_" fill="#1A1A1A" d="M436,354.9L436,354.9c0-1.6,1.2-2.9,2.9-2.9c1.7,0,2.9,1.3,2.9,2.8v0
		c0,1.6-1.2,2.9-2.9,2.9C437.3,357.7,436,356.5,436,354.9z M440.6,354.9L440.6,354.9c0-1-0.7-1.8-1.7-1.8c-1,0-1.6,0.8-1.6,1.7v0
		c0,1,0.7,1.8,1.7,1.8C440,356.7,440.6,355.9,440.6,354.9z"/>
	<path id="XMLID_142_" fill="#1A1A1A" d="M443.1,352.1h1.3v0.9c0.4-0.5,0.9-1,1.7-1c1.2,0,2,0.8,2,2.1v3.5h-1.3v-3.1
		c0-0.9-0.4-1.3-1.2-1.3c-0.7,0-1.2,0.5-1.2,1.4v3.1h-1.3V352.1z"/>
	<path id="XMLID_144_" fill="#1A1A1A" d="M449.1,356.9l0.6-0.9c0.6,0.4,1.2,0.7,1.8,0.7c0.5,0,0.9-0.2,0.9-0.6v0
		c0-0.4-0.6-0.6-1.2-0.8c-0.8-0.2-1.7-0.6-1.7-1.6v0c0-1,0.9-1.7,2-1.7c0.7,0,1.4,0.2,2,0.6l-0.5,0.9c-0.5-0.3-1.1-0.5-1.5-0.5
		c-0.5,0-0.8,0.2-0.8,0.5v0c0,0.4,0.6,0.6,1.2,0.8c0.8,0.2,1.7,0.6,1.7,1.6v0c0,1.2-0.9,1.7-2,1.7
		C450.7,357.7,449.8,357.4,449.1,356.9z"/>
	<path id="XMLID_146_" fill="#1A1A1A" d="M454.5,354.9L454.5,354.9c0-1.6,1.1-2.9,2.7-2.9c1.7,0,2.6,1.4,2.6,2.9c0,0.1,0,0.2,0,0.4
		h-4c0.1,0.9,0.8,1.4,1.6,1.4c0.6,0,1-0.2,1.5-0.7l0.7,0.7c-0.5,0.6-1.2,1-2.2,1C455.7,357.7,454.5,356.6,454.5,354.9z M458.5,354.5
		c-0.1-0.8-0.6-1.4-1.4-1.4c-0.8,0-1.3,0.6-1.4,1.4H458.5z"/>
</g>
<g id="XMLID_58_">
	<path id="XMLID_59_" fill="#1A1A1A" d="M518,356.6l0.8-0.9c0.7,0.6,1.4,0.9,2.3,0.9c0.8,0,1.3-0.4,1.3-0.9v0c0-0.5-0.3-0.8-1.6-1.1
		c-1.5-0.4-2.4-0.8-2.4-2.2v0c0-1.2,1-2.1,2.5-2.1c1.1,0,1.9,0.3,2.6,0.9l-0.7,1c-0.7-0.5-1.3-0.7-2-0.7c-0.7,0-1.2,0.4-1.2,0.9v0
		c0,0.6,0.3,0.8,1.7,1.1c1.5,0.4,2.3,0.9,2.3,2.1v0c0,1.4-1.1,2.2-2.6,2.2C519.9,357.7,518.9,357.3,518,356.6z"/>
	<path id="XMLID_61_" fill="#1A1A1A" d="M525,350.1h1.3v1.2H525V350.1z M525.1,352.1h1.3v5.5h-1.3V352.1z"/>
	<path id="XMLID_64_" fill="#1A1A1A" d="M527.7,354.9L527.7,354.9c0-1.8,1.2-2.9,2.5-2.9c0.9,0,1.5,0.5,1.9,1v-2.9h1.3v7.6h-1.3
		v-0.9c-0.4,0.6-1,1-1.9,1C528.9,357.7,527.7,356.7,527.7,354.9z M532.1,354.9L532.1,354.9c0-1.1-0.7-1.8-1.6-1.8
		c-0.9,0-1.6,0.7-1.6,1.8v0c0,1.1,0.7,1.8,1.6,1.8C531.4,356.6,532.1,355.9,532.1,354.9z"/>
	<path id="XMLID_67_" fill="#1A1A1A" d="M534.6,354.9L534.6,354.9c0-1.6,1.1-2.9,2.7-2.9c1.7,0,2.6,1.4,2.6,2.9c0,0.1,0,0.2,0,0.4
		h-4c0.1,0.9,0.8,1.4,1.6,1.4c0.6,0,1-0.2,1.5-0.7l0.7,0.7c-0.5,0.6-1.2,1-2.2,1C535.8,357.7,534.6,356.6,534.6,354.9z M538.7,354.5
		c-0.1-0.8-0.6-1.4-1.4-1.4c-0.8,0-1.3,0.6-1.4,1.4H538.7z"/>
	<path id="XMLID_70_" fill="#1A1A1A" d="M544.4,350.4h5.4v1.1h-4.1v1.9h3.6v1.1h-3.6v2h4.2v1.1h-5.4V350.4z"/>
	<path id="XMLID_72_" fill="#1A1A1A" d="M551.5,353.2h-0.7v-1h0.7v-0.4c0-0.6,0.2-1.1,0.4-1.4c0.3-0.3,0.7-0.4,1.2-0.4
		c0.4,0,0.7,0.1,1,0.1v1.1c-0.2-0.1-0.5-0.1-0.7-0.1c-0.5,0-0.7,0.3-0.7,0.8v0.3h1.5v1h-1.4v4.4h-1.3V353.2z M555.4,353.2h-0.7v-1
		h0.7v-0.4c0-0.6,0.2-1.1,0.4-1.4c0.3-0.3,0.7-0.4,1.2-0.4c0.4,0,0.7,0.1,1,0.1v1.1c-0.2-0.1-0.5-0.1-0.7-0.1
		c-0.5,0-0.7,0.3-0.7,0.8v0.3h1.5v1h-1.4v4.4h-1.3V353.2z"/>
	<path id="XMLID_75_" fill="#1A1A1A" d="M558.6,354.9L558.6,354.9c0-1.6,1.1-2.9,2.7-2.9c1.7,0,2.6,1.4,2.6,2.9c0,0.1,0,0.2,0,0.4
		h-4c0.1,0.9,0.8,1.4,1.6,1.4c0.6,0,1-0.2,1.5-0.7l0.7,0.7c-0.5,0.6-1.2,1-2.2,1C559.9,357.7,558.6,356.6,558.6,354.9z M562.7,354.5
		c-0.1-0.8-0.6-1.4-1.4-1.4c-0.8,0-1.3,0.6-1.4,1.4H562.7z"/>
	<path id="XMLID_78_" fill="#1A1A1A" d="M564.9,354.9L564.9,354.9c0-1.6,1.2-2.9,2.8-2.9c1,0,1.7,0.4,2.2,0.9l-0.8,0.8
		c-0.4-0.4-0.8-0.7-1.4-0.7c-0.9,0-1.6,0.8-1.6,1.7v0c0,1,0.7,1.8,1.6,1.8c0.6,0,1-0.3,1.4-0.7l0.8,0.7c-0.5,0.6-1.2,1-2.2,1
		C566.1,357.7,564.9,356.5,564.9,354.9z"/>
	<path id="XMLID_80_" fill="#1A1A1A" d="M571.4,356.1v-2.9h-0.7v-1.1h0.7v-1.5h1.3v1.5h1.5v1.1h-1.5v2.7c0,0.5,0.2,0.7,0.7,0.7
		c0.3,0,0.5-0.1,0.8-0.2v1c-0.3,0.2-0.7,0.3-1.1,0.3C572.1,357.7,571.4,357.3,571.4,356.1z"/>
	<path id="XMLID_82_" fill="#1A1A1A" d="M575,356.9l0.6-0.9c0.6,0.4,1.2,0.7,1.8,0.7c0.5,0,0.9-0.2,0.9-0.6v0c0-0.4-0.6-0.6-1.2-0.8
		c-0.8-0.2-1.7-0.6-1.7-1.6v0c0-1,0.9-1.7,2-1.7c0.7,0,1.4,0.2,2,0.6l-0.5,0.9c-0.5-0.3-1.1-0.5-1.5-0.5c-0.5,0-0.8,0.2-0.8,0.5v0
		c0,0.4,0.6,0.6,1.2,0.8c0.8,0.2,1.7,0.6,1.7,1.6v0c0,1.2-0.9,1.7-2,1.7C576.5,357.7,575.6,357.4,575,356.9z"/>
</g>
<g id="XMLID_27_">
	<path id="XMLID_28_" fill="#1A1A1A" d="M605.4,351.5h-2.3v-1.2h5.9v1.2h-2.3v6.1h-1.3V351.5z"/>
	<path id="XMLID_30_" fill="#1A1A1A" d="M608.7,354.9L608.7,354.9c0-1.6,1.2-2.9,2.9-2.9c1.7,0,2.9,1.3,2.9,2.8v0
		c0,1.6-1.2,2.9-2.9,2.9C609.9,357.7,608.7,356.5,608.7,354.9z M613.3,354.9L613.3,354.9c0-1-0.7-1.8-1.7-1.8c-1,0-1.6,0.8-1.6,1.7
		v0c0,1,0.7,1.8,1.7,1.8C612.6,356.7,613.3,355.9,613.3,354.9z"/>
	<path id="XMLID_33_" fill="#1A1A1A" d="M617,354.8l-1.9-2.7h1.4l1.3,1.8l1.3-1.8h1.3l-1.9,2.7l2,2.8H619l-1.3-1.9l-1.3,1.9H615
		L617,354.8z"/>
	<path id="XMLID_35_" fill="#1A1A1A" d="M621.5,350.1h1.3v1.2h-1.3V350.1z M621.5,352.1h1.3v5.5h-1.3V352.1z"/>
	<path id="XMLID_38_" fill="#1A1A1A" d="M624.1,354.9L624.1,354.9c0-1.6,1.2-2.9,2.8-2.9c1,0,1.7,0.4,2.2,0.9l-0.8,0.8
		c-0.4-0.4-0.8-0.7-1.4-0.7c-0.9,0-1.6,0.8-1.6,1.7v0c0,1,0.7,1.8,1.6,1.8c0.6,0,1-0.3,1.4-0.7l0.8,0.7c-0.5,0.6-1.2,1-2.2,1
		C625.3,357.7,624.1,356.5,624.1,354.9z"/>
	<path id="XMLID_40_" fill="#1A1A1A" d="M630.4,350.1h1.3v1.2h-1.3V350.1z M630.4,352.1h1.3v5.5h-1.3V352.1z"/>
	<path id="XMLID_43_" fill="#1A1A1A" d="M633.6,356.1v-2.9h-0.7v-1.1h0.7v-1.5h1.3v1.5h1.5v1.1h-1.5v2.7c0,0.5,0.2,0.7,0.7,0.7
		c0.3,0,0.5-0.1,0.8-0.2v1c-0.3,0.2-0.7,0.3-1.1,0.3C634.2,357.7,633.6,357.3,633.6,356.1z"/>
	<path id="XMLID_45_" fill="#1A1A1A" d="M637.4,359l0.4-0.9c0.2,0.1,0.5,0.2,0.7,0.2c0.4,0,0.6-0.2,0.8-0.6l-2.3-5.5h1.3l1.6,4.1
		l1.4-4.1h1.3l-2.2,5.6c-0.4,1.1-0.9,1.5-1.8,1.5C638.2,359.3,637.8,359.2,637.4,359z"/>
	<path id="XMLID_47_" fill="#1A1A1A" d="M650.5,349.3h1.1l-4.7,9.6h-1.1L650.5,349.3z"/>
	<path id="XMLID_49_" fill="#1A1A1A" d="M658.1,350.3h1.2l3.2,7.3h-1.3l-0.7-1.8H657l-0.7,1.8h-1.3L658.1,350.3z M659.9,354.7
		l-1.3-2.9l-1.2,2.9H659.9z"/>
	<path id="XMLID_52_" fill="#1A1A1A" d="M663.7,350.4h2.7c2.3,0,3.9,1.6,3.9,3.6v0c0,2-1.6,3.6-3.9,3.6h-2.7V350.4z M666.4,356.5
		c1.5,0,2.5-1,2.5-2.4v0c0-1.4-1-2.5-2.5-2.5H665v4.9H666.4z"/>
	<path id="XMLID_55_" fill="#1A1A1A" d="M671.8,350.4h3.2c0.9,0,1.6,0.3,2.1,0.7c0.4,0.4,0.6,0.9,0.6,1.6v0c0,1.2-0.7,1.9-1.7,2.2
		l2,2.8h-1.5l-1.8-2.5h-1.6v2.5h-1.3V350.4z M675,354c0.9,0,1.5-0.5,1.5-1.2v0c0-0.8-0.6-1.2-1.5-1.2h-1.9v2.4H675z"/>
</g>
<path fill="#EFB97D" d="M191,255.8c-5.3,4.5-11.6,8.6-18.7,12.2v31.4h96.5V148.7C246.9,188.2,219.4,231.5,191,255.8z"/>
<path fill="#F4D6B9" d="M0,299.4h172.3V268C112.4,302.5,0,299.4,0,299.4z"/>
<path fill="#C96E14" d="M597.8,268v31.4h172.3C770.1,299.4,657.4,297.5,597.8,268z"/>
<path fill="#E9A049" d="M460.8,72.1c-28-49.8-51.9-71.6-75.8-71.6s-47.7,21.8-75.8,71.6c-8.2,14.6-22.5,44.3-40.5,76.6v150.7h232.5
	V148.7C483.3,116.4,469,86.7,460.8,72.1z"/>
<path fill="#DD882C" d="M579.1,255.8c-28.5-24.3-55.9-67.6-77.8-107.1v150.7h96.5V268C590.8,264.4,584.4,260.3,579.1,255.8z"/>
<path fill="none" stroke="#BC6E1B" stroke-miterlimit="10" d="M770.1,299.4c-47.6-1.8-151.7-10.1-191-43.6
	c-51.8-44.2-100.1-151.3-118.3-183.7c-28-49.8-51.9-71.6-75.8-71.6s-47.7,21.8-75.8,71.6c-18.2,32.4-66.5,139.5-118.3,183.7
	c-37,31.6-115.2,43.7-188.5,43.7"/>
<g>
	<circle fill="#E9A049" cx="193.9" cy="314.1" r="2.6"/>
	<path fill="#E9A049" d="M194.8,318c-0.7-0.1-1.4-0.1-2,0c-4.4,0.5-5.8,5.6-5.4,9.4c0.2,1.7,2.8,1.7,2.6,0c-0.1-1.4-0.1-3.5,0.7-5
		c0,1.8,0,3.7,0,5.5c0,0.1,0,0.1,0,0.2c0,0,0,0.1,0,0.1c0,4.4,0,8.7-0.2,13.1c-0.1,1.9,2.9,1.9,3,0c0.1-3.4,0.2-6.8,0.2-10.3
		c0.1,0,0.3,0,0.4,0c0,3.4,0,6.8,0.2,10.3c0.1,1.9,3.1,1.9,3,0c-0.2-4.4-0.2-8.7-0.2-13.1c0-0.1,0-0.3,0-0.4c0-1.9-0.1-3.8-0.1-5.7
		c0.9,1.5,1,3.8,0.8,5.3c-0.2,1.7,2.5,1.7,2.6,0C200.9,323.5,199.4,318.3,194.8,318z"/>
</g>
<g>
	<circle fill="#E9A049" cx="211.3" cy="314.1" r="2.6"/>
	<path fill="#E9A049" d="M212.2,318c-0.7-0.1-1.4-0.1-2,0c-4.4,0.5-5.8,5.6-5.4,9.4c0.2,1.7,2.8,1.7,2.6,0c-0.1-1.4-0.1-3.5,0.7-5
		c0,1.8,0,3.7,0,5.5c0,0.1,0,0.1,0,0.2c0,0,0,0.1,0,0.1c0,4.4,0,8.7-0.2,13.1c-0.1,1.9,2.9,1.9,3,0c0.1-3.4,0.2-6.8,0.2-10.3
		c0.1,0,0.3,0,0.4,0c0,3.4,0,6.8,0.2,10.3c0.1,1.9,3.1,1.9,3,0c-0.2-4.4-0.2-8.7-0.2-13.1c0-0.1,0-0.3,0-0.4c0-1.9-0.1-3.8-0.1-5.7
		c0.9,1.5,1,3.8,0.8,5.3c-0.2,1.7,2.5,1.7,2.6,0C218.3,323.5,216.8,318.3,212.2,318z"/>
</g>
<g>
	<circle fill="#E9A049" cx="120.8" cy="314.1" r="2.6"/>
	<path fill="#E9A049" d="M121.7,318c-0.7-0.1-1.4-0.1-2,0c-4.4,0.5-5.8,5.6-5.4,9.4c0.2,1.7,2.8,1.7,2.6,0c-0.1-1.4-0.1-3.5,0.7-5
		c0,1.8,0,3.7,0,5.5c0,0.1,0,0.1,0,0.2c0,0,0,0.1,0,0.1c0,4.4,0,8.7-0.2,13.1c-0.1,1.9,2.9,1.9,3,0c0.1-3.4,0.2-6.8,0.2-10.3
		c0.1,0,0.3,0,0.4,0c0,3.4,0,6.8,0.2,10.3c0.1,1.9,3.1,1.9,3,0c-0.2-4.4-0.2-8.7-0.2-13.1c0-0.1,0-0.3,0-0.4c0-1.9-0.1-3.8-0.1-5.7
		c0.9,1.5,1,3.8,0.8,5.3c-0.2,1.7,2.5,1.7,2.6,0C127.8,323.5,126.3,318.3,121.7,318z"/>
</g>
<g>
	<circle fill="#E9A049" cx="138.2" cy="314.1" r="2.6"/>
	<path fill="#E9A049" d="M139.1,318c-0.7-0.1-1.4-0.1-2,0c-4.4,0.5-5.8,5.6-5.4,9.4c0.2,1.7,2.8,1.7,2.6,0c-0.1-1.4-0.1-3.5,0.7-5
		c0,1.8,0,3.7,0,5.5c0,0.1,0,0.1,0,0.2c0,0,0,0.1,0,0.1c0,4.4,0,8.7-0.2,13.1c-0.1,1.9,2.9,1.9,3,0c0.1-3.4,0.2-6.8,0.2-10.3
		c0.1,0,0.3,0,0.4,0c0,3.4,0,6.8,0.2,10.3c0.1,1.9,3.1,1.9,3,0c-0.2-4.4-0.2-8.7-0.2-13.1c0-0.1,0-0.3,0-0.4c0-1.9-0.1-3.8-0.1-5.7
		c0.9,1.5,1,3.8,0.8,5.3c-0.2,1.7,2.5,1.7,2.6,0C145.2,323.5,143.7,318.3,139.1,318z"/>
</g>
<g>
	<circle fill="#E9A049" cx="228.7" cy="314.1" r="2.6"/>
	<path fill="#E9A049" d="M229.6,318c-0.7-0.1-1.4-0.1-2,0c-4.4,0.5-5.8,5.6-5.4,9.4c0.2,1.7,2.8,1.7,2.6,0c-0.1-1.4-0.1-3.5,0.7-5
		c0,1.8,0,3.7,0,5.5c0,0.1,0,0.1,0,0.2c0,0,0,0.1,0,0.1c0,4.4,0,8.7-0.2,13.1c-0.1,1.9,2.9,1.9,3,0c0.1-3.4,0.2-6.8,0.2-10.3
		c0.1,0,0.3,0,0.4,0c0,3.4,0,6.8,0.2,10.3c0.1,1.9,3.1,1.9,3,0c-0.2-4.4-0.2-8.7-0.2-13.1c0-0.1,0-0.3,0-0.4c0-1.9-0.1-3.8-0.1-5.7
		c0.9,1.5,1,3.8,0.8,5.3c-0.2,1.7,2.5,1.7,2.6,0C235.7,323.5,234.2,318.3,229.6,318z"/>
</g>
<g>
	<circle fill="#E9A049" cx="246" cy="314.1" r="2.6"/>
	<path fill="#E9A049" d="M247,318c-0.7-0.1-1.4-0.1-2,0c-4.4,0.5-5.8,5.6-5.4,9.4c0.2,1.7,2.8,1.7,2.6,0c-0.1-1.4-0.1-3.5,0.7-5
		c0,1.8,0,3.7,0,5.5c0,0.1,0,0.1,0,0.2c0,0,0,0.1,0,0.1c0,4.4,0,8.7-0.2,13.1c-0.1,1.9,2.9,1.9,3,0c0.1-3.4,0.2-6.8,0.2-10.3
		c0.1,0,0.3,0,0.4,0c0,3.4,0,6.8,0.2,10.3c0.1,1.9,3.1,1.9,3,0c-0.2-4.4-0.2-8.7-0.2-13.1c0-0.1,0-0.3,0-0.4c0-1.9-0.1-3.8-0.1-5.7
		c0.9,1.5,1,3.8,0.8,5.3c-0.2,1.7,2.5,1.7,2.6,0C253,323.5,251.6,318.3,247,318z"/>
</g>
<g>
	<circle fill="#E9A049" cx="280.3" cy="314.1" r="2.6"/>
	<path fill="#E9A049" d="M281.3,318c-0.7-0.1-1.4-0.1-2,0c-4.4,0.5-5.8,5.6-5.4,9.4c0.2,1.7,2.8,1.7,2.6,0c-0.1-1.4-0.1-3.5,0.7-5
		c0,1.8,0,3.7,0,5.5c0,0.1,0,0.1,0,0.2c0,0,0,0.1,0,0.1c0,4.4,0,8.7-0.2,13.1c-0.1,1.9,2.9,1.9,3,0c0.1-3.4,0.2-6.8,0.2-10.3
		c0.1,0,0.3,0,0.4,0c0,3.4,0,6.8,0.2,10.3c0.1,1.9,3.1,1.9,3,0c-0.2-4.4-0.2-8.7-0.2-13.1c0-0.1,0-0.3,0-0.4c0-1.9-0.1-3.8-0.1-5.7
		c0.9,1.5,1,3.8,0.8,5.3c-0.2,1.7,2.5,1.7,2.6,0C287.3,323.5,285.9,318.3,281.3,318z"/>
</g>
<g>
	<circle fill="#E9A049" cx="297.7" cy="314.1" r="2.6"/>
	<path fill="#E9A049" d="M298.6,318c-0.7-0.1-1.4-0.1-2,0c-4.4,0.5-5.8,5.6-5.4,9.4c0.2,1.7,2.8,1.7,2.6,0c-0.1-1.4-0.1-3.5,0.7-5
		c0,1.8,0,3.7,0,5.5c0,0.1,0,0.1,0,0.2c0,0,0,0.1,0,0.1c0,4.4,0,8.7-0.2,13.1c-0.1,1.9,2.9,1.9,3,0c0.1-3.4,0.2-6.8,0.2-10.3
		c0.1,0,0.3,0,0.4,0c0,3.4,0,6.8,0.2,10.3c0.1,1.9,3.1,1.9,3,0c-0.2-4.4-0.2-8.7-0.2-13.1c0-0.1,0-0.3,0-0.4c0-1.9-0.1-3.8-0.1-5.7
		c0.9,1.5,1,3.8,0.8,5.3c-0.2,1.7,2.5,1.7,2.6,0C304.7,323.5,303.2,318.3,298.6,318z"/>
</g>
<g>
	<circle fill="#E9A049" cx="315.1" cy="314.1" r="2.6"/>
	<path fill="#E9A049" d="M316,318c-0.7-0.1-1.4-0.1-2,0c-4.4,0.5-5.8,5.6-5.4,9.4c0.2,1.7,2.8,1.7,2.6,0c-0.1-1.4-0.1-3.5,0.7-5
		c0,1.8,0,3.7,0,5.5c0,0.1,0,0.1,0,0.2c0,0,0,0.1,0,0.1c0,4.4,0,8.7-0.2,13.1c-0.1,1.9,2.9,1.9,3,0c0.1-3.4,0.2-6.8,0.2-10.3
		c0.1,0,0.3,0,0.4,0c0,3.4,0,6.8,0.2,10.3c0.1,1.9,3.1,1.9,3,0c-0.2-4.4-0.2-8.7-0.2-13.1c0-0.1,0-0.3,0-0.4c0-1.9-0.1-3.8-0.1-5.7
		c0.9,1.5,1,3.8,0.8,5.3c-0.2,1.7,2.5,1.7,2.6,0C322.1,323.5,320.6,318.3,316,318z"/>
</g>
<g>
	<circle fill="#E9A049" cx="332.5" cy="314.1" r="2.6"/>
	<path fill="#E9A049" d="M333.4,318c-0.7-0.1-1.4-0.1-2,0c-4.4,0.5-5.8,5.6-5.4,9.4c0.2,1.7,2.8,1.7,2.6,0c-0.1-1.4-0.1-3.5,0.7-5
		c0,1.8,0,3.7,0,5.5c0,0.1,0,0.1,0,0.2c0,0,0,0.1,0,0.1c0,4.4,0,8.7-0.2,13.1c-0.1,1.9,2.9,1.9,3,0c0.1-3.4,0.2-6.8,0.2-10.3
		c0.1,0,0.3,0,0.4,0c0,3.4,0,6.8,0.2,10.3c0.1,1.9,3.1,1.9,3,0c-0.2-4.4-0.2-8.7-0.2-13.1c0-0.1,0-0.3,0-0.4c0-1.9-0.1-3.8-0.1-5.7
		c0.9,1.5,1,3.8,0.8,5.3c-0.2,1.7,2.5,1.7,2.6,0C339.5,323.5,338,318.3,333.4,318z"/>
</g>
<g>
	<circle fill="#E9A049" cx="349.9" cy="314.1" r="2.6"/>
	<path fill="#E9A049" d="M350.8,318c-0.7-0.1-1.4-0.1-2,0c-4.4,0.5-5.8,5.6-5.4,9.4c0.2,1.7,2.8,1.7,2.6,0c-0.1-1.4-0.1-3.5,0.7-5
		c0,1.8,0,3.7,0,5.5c0,0.1,0,0.1,0,0.2c0,0,0,0.1,0,0.1c0,4.4,0,8.7-0.2,13.1c-0.1,1.9,2.9,1.9,3,0c0.1-3.4,0.2-6.8,0.2-10.3
		c0.1,0,0.3,0,0.4,0c0,3.4,0,6.8,0.2,10.3c0.1,1.9,3.1,1.9,3,0c-0.2-4.4-0.2-8.7-0.2-13.1c0-0.1,0-0.3,0-0.4c0-1.9-0.1-3.8-0.1-5.7
		c0.9,1.5,1,3.8,0.8,5.3c-0.2,1.7,2.5,1.7,2.6,0C356.9,323.5,355.4,318.3,350.8,318z"/>
</g>
<g>
	<circle fill="#E9A049" cx="367.3" cy="314.1" r="2.6"/>
	<path fill="#E9A049" d="M368.2,318c-0.7-0.1-1.4-0.1-2,0c-4.4,0.5-5.8,5.6-5.4,9.4c0.2,1.7,2.8,1.7,2.6,0c-0.1-1.4-0.1-3.5,0.7-5
		c0,1.8,0,3.7,0,5.5c0,0.1,0,0.1,0,0.2c0,0,0,0.1,0,0.1c0,4.4,0,8.7-0.2,13.1c-0.1,1.9,2.9,1.9,3,0c0.1-3.4,0.2-6.8,0.2-10.3
		c0.1,0,0.3,0,0.4,0c0,3.4,0,6.8,0.2,10.3c0.1,1.9,3.1,1.9,3,0c-0.2-4.4-0.2-8.7-0.2-13.1c0-0.1,0-0.3,0-0.4c0-1.9-0.1-3.8-0.1-5.7
		c0.9,1.5,1,3.8,0.8,5.3c-0.2,1.7,2.5,1.7,2.6,0C374.3,323.5,372.8,318.3,368.2,318z"/>
</g>
<g>
	<circle fill="#E9A049" cx="384.6" cy="314.1" r="2.6"/>
	<path fill="#E9A049" d="M385.6,318c-0.7-0.1-1.4-0.1-2,0c-4.4,0.5-5.8,5.6-5.4,9.4c0.2,1.7,2.8,1.7,2.6,0c-0.1-1.4-0.1-3.5,0.7-5
		c0,1.8,0,3.7,0,5.5c0,0.1,0,0.1,0,0.2c0,0,0,0.1,0,0.1c0,4.4,0,8.7-0.2,13.1c-0.1,1.9,2.9,1.9,3,0c0.1-3.4,0.2-6.8,0.2-10.3
		c0.1,0,0.3,0,0.4,0c0,3.4,0,6.8,0.2,10.3c0.1,1.9,3.1,1.9,3,0c-0.2-4.4-0.2-8.7-0.2-13.1c0-0.1,0-0.3,0-0.4c0-1.9-0.1-3.8-0.1-5.7
		c0.9,1.5,1,3.8,0.8,5.3c-0.2,1.7,2.5,1.7,2.6,0C391.7,323.5,390.2,318.3,385.6,318z"/>
</g>
<g>
	<circle fill="#E9A049" cx="402" cy="314.1" r="2.6"/>
	<path fill="#E9A049" d="M402.9,318c-0.7-0.1-1.4-0.1-2,0c-4.4,0.5-5.8,5.6-5.4,9.4c0.2,1.7,2.8,1.7,2.6,0c-0.1-1.4-0.1-3.5,0.7-5
		c0,1.8,0,3.7,0,5.5c0,0.1,0,0.1,0,0.2c0,0,0,0.1,0,0.1c0,4.4,0,8.7-0.2,13.1c-0.1,1.9,2.9,1.9,3,0c0.1-3.4,0.2-6.8,0.2-10.3
		c0.1,0,0.3,0,0.4,0c0,3.4,0,6.8,0.2,10.3c0.1,1.9,3.1,1.9,3,0c-0.2-4.4-0.2-8.7-0.2-13.1c0-0.1,0-0.3,0-0.4c0-1.9-0.1-3.8-0.1-5.7
		c0.9,1.5,1,3.8,0.8,5.3c-0.2,1.7,2.5,1.7,2.6,0C409,323.5,407.5,318.3,402.9,318z"/>
</g>
<g>
	<circle fill="#E9A049" cx="419.4" cy="314.1" r="2.6"/>
	<path fill="#E9A049" d="M420.3,318c-0.7-0.1-1.4-0.1-2,0c-4.4,0.5-5.8,5.6-5.4,9.4c0.2,1.7,2.8,1.7,2.6,0c-0.1-1.4-0.1-3.5,0.7-5
		c0,1.8,0,3.7,0,5.5c0,0.1,0,0.1,0,0.2c0,0,0,0.1,0,0.1c0,4.4,0,8.7-0.2,13.1c-0.1,1.9,2.9,1.9,3,0c0.1-3.4,0.2-6.8,0.2-10.3
		c0.1,0,0.3,0,0.4,0c0,3.4,0,6.8,0.2,10.3c0.1,1.9,3.1,1.9,3,0c-0.2-4.4-0.2-8.7-0.2-13.1c0-0.1,0-0.3,0-0.4c0-1.9-0.1-3.8-0.1-5.7
		c0.9,1.5,1,3.8,0.8,5.3c-0.2,1.7,2.5,1.7,2.6,0C426.4,323.5,424.9,318.3,420.3,318z"/>
</g>
<g>
	<circle fill="#E9A049" cx="436.8" cy="314.1" r="2.6"/>
	<path fill="#E9A049" d="M437.7,318c-0.7-0.1-1.4-0.1-2,0c-4.4,0.5-5.8,5.6-5.4,9.4c0.2,1.7,2.8,1.7,2.6,0c-0.1-1.4-0.1-3.5,0.7-5
		c0,1.8,0,3.7,0,5.5c0,0.1,0,0.1,0,0.2c0,0,0,0.1,0,0.1c0,4.4,0,8.7-0.2,13.1c-0.1,1.9,2.9,1.9,3,0c0.1-3.4,0.2-6.8,0.2-10.3
		c0.1,0,0.3,0,0.4,0c0,3.4,0,6.8,0.2,10.3c0.1,1.9,3.1,1.9,3,0c-0.2-4.4-0.2-8.7-0.2-13.1c0-0.1,0-0.3,0-0.4c0-1.9-0.1-3.8-0.1-5.7
		c0.9,1.5,1,3.8,0.8,5.3c-0.2,1.7,2.5,1.7,2.6,0C443.8,323.5,442.3,318.3,437.7,318z"/>
</g>
<g>
	<path fill="#E9A049" d="M454.2,311.5c1.5,0,2.6,1.2,2.6,2.6c0,1.5-1.2,2.6-2.6,2.6c-1.5,0-2.6-1.2-2.6-2.6
		C451.6,312.6,452.7,311.5,454.2,311.5z"/>
	<path fill="#E9A049" d="M455.1,318c-0.7-0.1-1.4-0.1-2,0c-4.4,0.5-5.8,5.6-5.4,9.4c0.2,1.7,2.8,1.7,2.6,0c-0.1-1.4-0.1-3.5,0.7-5
		c0,1.8,0,3.7,0,5.5c0,0.1,0,0.1,0,0.2c0,0,0,0.1,0,0.1c0,4.4,0,8.7-0.2,13.1c-0.1,1.9,2.9,1.9,3,0c0.1-3.4,0.2-6.8,0.2-10.3
		c0.1,0,0.3,0,0.4,0c0,3.4,0,6.8,0.2,10.3c0.1,1.9,3.1,1.9,3,0c-0.2-4.4-0.2-8.7-0.2-13.1c0-0.1,0-0.3,0-0.4c0-1.9-0.1-3.8-0.1-5.7
		c0.9,1.5,1,3.8,0.8,5.3c-0.2,1.7,2.5,1.7,2.6,0C461.2,323.5,459.7,318.3,455.1,318z"/>
</g>
<g>
	<circle fill="#E9A049" cx="471.6" cy="314.1" r="2.6"/>
	<path fill="#E9A049" d="M472.5,318c-0.7-0.1-1.4-0.1-2,0c-4.4,0.5-5.8,5.6-5.4,9.4c0.2,1.7,2.8,1.7,2.6,0c-0.1-1.4-0.1-3.5,0.7-5
		c0,1.8,0,3.7,0,5.5c0,0.1,0,0.1,0,0.2c0,0,0,0.1,0,0.1c0,4.4,0,8.7-0.2,13.1c-0.1,1.9,2.9,1.9,3,0c0.1-3.4,0.2-6.8,0.2-10.3
		c0.1,0,0.3,0,0.4,0c0,3.4,0,6.8,0.2,10.3c0.1,1.9,3.1,1.9,3,0c-0.2-4.4-0.2-8.7-0.2-13.1c0-0.1,0-0.3,0-0.4c0-1.9-0.1-3.8-0.1-5.7
		c0.9,1.5,1,3.8,0.8,5.3c-0.2,1.7,2.5,1.7,2.6,0C478.6,323.5,477.1,318.3,472.5,318z"/>
</g>
<g>
	<circle fill="#E9A049" cx="489" cy="314.1" r="2.6"/>
	<path fill="#E9A049" d="M489.9,318c-0.7-0.1-1.4-0.1-2,0c-4.4,0.5-5.8,5.6-5.4,9.4c0.2,1.7,2.8,1.7,2.6,0c-0.1-1.4-0.1-3.5,0.7-5
		c0,1.8,0,3.7,0,5.5c0,0.1,0,0.1,0,0.2c0,0,0,0.1,0,0.1c0,4.4,0,8.7-0.2,13.1c-0.1,1.9,2.9,1.9,3,0c0.1-3.4,0.2-6.8,0.2-10.3
		c0.1,0,0.3,0,0.4,0c0,3.4,0,6.8,0.2,10.3c0.1,1.9,3.1,1.9,3,0c-0.2-4.4-0.2-8.7-0.2-13.1c0-0.1,0-0.3,0-0.4c0-1.9-0.1-3.8-0.1-5.7
		c0.9,1.5,1,3.8,0.8,5.3c-0.2,1.7,2.5,1.7,2.6,0C496,323.5,494.5,318.3,489.9,318z"/>
</g>
<g>
	<circle fill="#E9A049" cx="575.5" cy="314.1" r="2.6"/>
	<path fill="#E9A049" d="M568.9,327.4c0.2,1.7,2.8,1.7,2.6,0c-0.2-1.5-0.1-3.8,0.8-5.3c0,1.9-0.1,3.8-0.1,5.7c0,0.1,0,0.2,0,0.4
		c0,4.4,0,8.7-0.2,13.1c-0.1,1.9,2.9,1.9,3,0c0.1-3.4,0.2-6.8,0.2-10.3c0.1,0,0.3,0,0.4,0c0,3.4,0,6.8,0.2,10.3c0.1,1.9,3.1,1.9,3,0
		c-0.2-4.4-0.2-8.7-0.2-13.1c0,0,0-0.1,0-0.1c0-0.1,0-0.1,0-0.2c0-1.8,0-3.7,0-5.5c0.7,1.5,0.8,3.6,0.7,5c-0.2,1.7,2.5,1.7,2.6,0
		c0.4-3.9-1-8.9-5.4-9.4c-0.6-0.2-1.4-0.2-2,0C570,318.3,568.5,323.5,568.9,327.4z"/>
</g>
<g>
	<circle fill="#E9A049" cx="558.1" cy="314.1" r="2.6"/>
	<path fill="#E9A049" d="M551.5,327.4c0.2,1.7,2.8,1.7,2.6,0c-0.2-1.5-0.1-3.8,0.8-5.3c0,1.9-0.1,3.8-0.1,5.7c0,0.1,0,0.2,0,0.4
		c0,4.4,0,8.7-0.2,13.1c-0.1,1.9,2.9,1.9,3,0c0.1-3.4,0.2-6.8,0.2-10.3c0.1,0,0.3,0,0.4,0c0,3.4,0,6.8,0.2,10.3c0.1,1.9,3.1,1.9,3,0
		c-0.2-4.4-0.2-8.7-0.2-13.1c0,0,0-0.1,0-0.1c0-0.1,0-0.1,0-0.2c0-1.8,0-3.7,0-5.5c0.7,1.5,0.8,3.6,0.7,5c-0.2,1.7,2.5,1.7,2.6,0
		c0.4-3.9-1-8.9-5.4-9.4c-0.6-0.2-1.4-0.2-2,0C552.6,318.3,551.1,323.5,551.5,327.4z"/>
</g>
<g>
	<circle fill="#E9A049" cx="648.6" cy="314.1" r="2.6"/>
	<path fill="#E9A049" d="M642,327.4c0.2,1.7,2.8,1.7,2.6,0c-0.2-1.5-0.1-3.8,0.8-5.3c0,1.9,0,3.8-0.1,5.7c0,0.1,0,0.2,0,0.4
		c0,4.4,0,8.7-0.2,13.1c-0.1,1.9,2.9,1.9,3,0c0.1-3.4,0.2-6.8,0.2-10.3c0.1,0,0.3,0,0.4,0c0,3.4,0,6.8,0.2,10.3c0.1,1.9,3.1,1.9,3,0
		c-0.2-4.4-0.2-8.7-0.2-13.1c0,0,0-0.1,0-0.1c0-0.1,0-0.1,0-0.2c0-1.8,0-3.7,0-5.5c0.8,1.5,0.8,3.6,0.7,5c-0.2,1.7,2.5,1.7,2.6,0
		c0.4-3.9-1-8.9-5.4-9.4c-0.6-0.2-1.4-0.2-2,0C643.1,318.3,641.6,323.5,642,327.4z"/>
</g>
<g>
	<circle fill="#E9A049" cx="631.2" cy="314.1" r="2.6"/>
	<path fill="#E9A049" d="M624.6,327.4c0.2,1.7,2.8,1.7,2.6,0c-0.2-1.5-0.1-3.8,0.8-5.3c0,1.9-0.1,3.8-0.1,5.7c0,0.1,0,0.2,0,0.4
		c0,4.4,0,8.7-0.2,13.1c-0.1,1.9,2.9,1.9,3,0c0.1-3.4,0.2-6.8,0.2-10.3c0.1,0,0.3,0,0.4,0c0,3.4,0,6.8,0.2,10.3c0.1,1.9,3.1,1.9,3,0
		c-0.2-4.4-0.2-8.7-0.2-13.1c0,0,0-0.1,0-0.1c0-0.1,0-0.1,0-0.2c0-1.8,0-3.7,0-5.5c0.8,1.5,0.8,3.6,0.7,5c-0.2,1.7,2.5,1.7,2.6,0
		c0.4-3.9-1-8.9-5.4-9.4c-0.6-0.2-1.4-0.2-2,0C625.7,318.3,624.2,323.5,624.6,327.4z"/>
</g>
<g>
	<circle fill="#E9A049" cx="540.7" cy="314.1" r="2.6"/>
	<path fill="#E9A049" d="M534.2,327.4c0.2,1.7,2.8,1.7,2.6,0c-0.2-1.5-0.1-3.8,0.8-5.3c0,1.9-0.1,3.8-0.1,5.7c0,0.1,0,0.2,0,0.4
		c0,4.4,0,8.7-0.2,13.1c-0.1,1.9,2.9,1.9,3,0c0.1-3.4,0.2-6.8,0.2-10.3c0.1,0,0.3,0,0.4,0c0,3.4,0,6.8,0.2,10.3c0.1,1.9,3.1,1.9,3,0
		c-0.2-4.4-0.2-8.7-0.2-13.1c0,0,0-0.1,0-0.1c0-0.1,0-0.1,0-0.2c0-1.8,0-3.7,0-5.5c0.7,1.5,0.8,3.6,0.7,5c-0.2,1.7,2.5,1.7,2.6,0
		c0.4-3.9-1-8.9-5.4-9.4c-0.6-0.2-1.4-0.2-2,0C535.2,318.3,533.7,323.5,534.2,327.4z"/>
</g>
<g>
	<path fill="#E9A049" d="M526,314.1c0,1.5-1.2,2.6-2.6,2.6c-1.5,0-2.6-1.2-2.6-2.6c0-1.5,1.2-2.6,2.6-2.6
		C524.8,311.5,526,312.6,526,314.1z"/>
	<path fill="#E9A049" d="M516.8,327.4c0.2,1.7,2.8,1.7,2.6,0c-0.2-1.5-0.1-3.8,0.8-5.3c0,1.9-0.1,3.8-0.1,5.7c0,0.1,0,0.2,0,0.4
		c0,4.4,0,8.7-0.2,13.1c-0.1,1.9,2.9,1.9,3,0c0.1-3.4,0.2-6.8,0.2-10.3c0.1,0,0.3,0,0.4,0c0,3.4,0,6.8,0.2,10.3c0.1,1.9,3.1,1.9,3,0
		c-0.2-4.4-0.2-8.7-0.2-13.1c0,0,0-0.1,0-0.1c0-0.1,0-0.1,0-0.2c0-1.8,0-3.7,0-5.5c0.7,1.5,0.8,3.6,0.7,5c-0.2,1.7,2.5,1.7,2.6,0
		c0.4-3.9-1-8.9-5.4-9.4c-0.6-0.2-1.4-0.2-2,0C517.8,318.3,516.4,323.5,516.8,327.4z"/>
</g>
</svg>
